# xmcd CD database file
#
# Track frame offsets:
#	150
#	11937
#	26123
#	37224
#
# Disc length: 724 seconds
#
# Revision: 0
# Processed by: cddbd v1.5.2PL0 Copyright (c) Steve Scherf et al.
# Submitted via: CDex 1.51
#
DISCID=3302d204
DTITLE=Keely - My Country Way
DYEAR=1900
DGENRE=Country
TTITLE0=Cruisin' Down The Highway
TTITLE1=I Wanna Sing My Rock And Roll
TTITLE2=Long Black Jacket
TTITLE3=Two Hot Wheels
EXTD=
EXTT0=
EXTT1=
EXTT2=
EXTT3=
PLAYORDER=
